<?xml version="1.0" encoding="UTF-8"?>
<svg xmlns="http://www.w3.org/2000/svg" version="1.1" viewBox="0 0 288 288">
  <!-- Generator: Adobe Illustrator 29.5.1, SVG Export Plug-In . SVG Version: 2.1.0 Build 141)  -->
  <defs>
    <style>
      .st0, .st1 {
        fill: #c2a783;
      }

      .st2 {
        fill: #333;
      }

      .st2, .st3, .st4 {
        display: none;
      }

      .st5 {
        font-size: 39.95px;
      }

      .st5, .st6, .st7 {
        fill: #2b8c7f;
      }

      .st6 {
        font-family: Kangge-Regular, Kangge;
        font-size: 14.83px;
        letter-spacing: .02em;
      }

      .st8, .st4 {
        fill: none;
      }

      .st9 {
        font-family: OvercameDemoBold, 'Overcame Demo';
      }

      .st1 {
        font-size: 53.27px;
      }

      .st4 {
        stroke: #231f20;
        stroke-miterlimit: 10;
      }
    </style>
  </defs>
  <g id="Layer_2">
    <rect class="st2" x="-19.25" y="-7.51" width="339.06" height="318.13"/>
    <text class="st9" transform="translate(41.23 191.05)"><tspan class="st1" x="0" y="0">JING</tspan><tspan class="st5" x="100.85" y="0">U</tspan><tspan class="st1" x="122.25" y="0">CHA</tspan></text>
  </g>
  <g id="Layer_3" class="st3">
    <line x1="42.35" y1="69.6" x2="42.35" y2="271.3"/>
    <line x1="256.87" y1="69.6" x2="256.87" y2="271.3"/>
    <line x1="113.98" y1="69.6" x2="113.98" y2="271.3"/>
    <line x1="185.24" y1="69.6" x2="185.24" y2="271.3"/>
    <g>
      <line x1="-3.43" y1="159.55" x2="300.4" y2="159.55"/>
      <line x1="-3.43" y1="191.05" x2="300.4" y2="191.05"/>
      <line x1="-3.43" y1="169.83" x2="300.4" y2="169.83"/>
      <line x1="-3.43" y1="180.44" x2="300.4" y2="180.44"/>
    </g>
    <g>
      <line x1="-1.64" y1="117.6" x2="302.19" y2="117.6"/>
      <line x1="-1.64" y1="149.1" x2="302.19" y2="149.1"/>
      <line x1="-1.64" y1="127.88" x2="302.19" y2="127.88"/>
      <line x1="-1.64" y1="138.49" x2="302.19" y2="138.49"/>
    </g>
    <g>
      <line x1="-3.43" y1="201.5" x2="300.4" y2="201.5"/>
      <line x1="-3.43" y1="233" x2="300.4" y2="233"/>
      <line x1="-3.43" y1="211.78" x2="300.4" y2="211.78"/>
      <line x1="-3.43" y1="222.39" x2="300.4" y2="222.39"/>
    </g>
  </g>
  <g id="Layer_1">
    <path class="st4" d="M-31.15,176"/>
    <g>
      <path class="st8" d="M149.51,105.52v3.05l2.64,1.52,2.64-1.52v-2.2c0-.52-.28-1.01-.73-1.27h0c-1.18-.68-2.64-.68-3.82,0l-.73.42Z"/>
      <polygon class="st8" points="138.96 120.75 136.31 119.23 133.68 117.71 131.04 116.18 128.4 114.66 125.76 113.14 123.13 111.62 123.13 123.8 125.76 125.32 128.4 126.85 131.04 128.37 133.68 129.89 136.32 131.42 138.96 132.94 141.6 134.46 144.23 135.98 144.23 123.8 141.6 122.28 138.96 120.75"/>
      <polygon class="st0" points="178.54 100.95 178.53 100.95 175.89 99.42 173.25 97.9 170.62 96.38 167.98 94.86 165.34 93.33 162.7 91.81 160.06 90.29 157.43 88.76 154.79 87.24 152.15 85.72 149.51 87.24 146.87 88.76 146.87 88.76 144.23 90.29 141.6 91.81 138.96 93.33 136.32 94.86 133.68 96.38 131.04 97.9 131.04 97.9 128.4 99.42 128.4 102.47 131.04 103.99 133.68 102.47 136.32 100.95 138.96 99.42 141.6 97.9 144.23 96.38 146.87 94.86 149.51 93.33 152.15 91.81 154.79 93.33 157.43 94.86 160.06 96.38 162.7 97.9 165.34 99.42 167.98 100.95 170.62 102.47 173.26 104 175.89 105.52 175.89 129.89 175.89 132.94 173.25 134.46 170.62 135.98 167.98 137.51 165.34 139.03 165.34 123.8 162.71 122.28 162.7 122.28 160.06 123.8 160.06 145.12 162.7 146.65 165.34 145.12 167.98 143.6 170.62 142.08 173.26 140.55 175.89 139.03 178.53 137.51 181.17 135.98 181.17 129.89 181.17 105.52 181.17 102.47 178.54 100.95"/>
      <path class="st0" d="M144.23,117.71l-2.64-1.52-2.63-1.52-2.64-1.52-2.63-1.52-2.64-1.52-2.64-1.52-2.64-1.52-2.63-1.52-2.64-1.53-2.64,1.52v33.51l2.64,1.52,2.64-1.52v-9.14l2.64,1.52,2.64,1.52,2.64,1.52,2.64,1.52,2.64,1.52,2.64,1.52,2.64,1.52,2.64,1.52v12.18l2.64,1.52,2.64-1.52v-33.51l-2.64-1.52-2.64-1.52ZM144.23,135.98l-2.64-1.52-2.64-1.52-2.64-1.52-2.64-1.52-2.64-1.52-2.64-1.52-2.64-1.52-2.63-1.52v-12.18l2.63,1.52,2.64,1.52,2.64,1.52,2.64,1.52,2.63,1.52,2.64,1.53,2.64,1.52,2.64,1.52v12.18Z"/>
      <path class="st7" d="M160.06,103.99c0-.94-.5-1.81-1.32-2.28l-1.32-.76-2.64-1.52-1.32-.76c-.82-.47-1.82-.47-2.64,0l-1.32.76-2.64,1.52-1.32.76c-.82.47-1.32,1.34-1.32,2.28v6.09c0,.94.5,1.81,1.32,2.28l1.32.76,2.64,1.52,1.32.76c.82.47,1.82.47,2.64,0l1.32-.76,2.64-1.52,1.32-.76c.82-.47,1.32-1.34,1.32-2.28v-6.1ZM153.47,109.33h0c-.82.47-1.82.47-2.64,0h0c-.82-.47-1.32-1.34-1.32-2.28h0c0-.94.5-1.81,1.32-2.29h0c.82-.47,1.82-.47,2.64,0h0c.82.47,1.32,1.34,1.32,2.29h0c0,.94-.5,1.81-1.32,2.28Z"/>
    </g>
    <text class="st6" transform="translate(86.72 220.28)"><tspan x="0" y="0">Rhythm Of Nature</tspan></text>
  </g>
</svg>